<svg width="43" height="41" xmlns="http://www.w3.org/2000/svg">

 <g>
  <title>background</title>
  <rect fill="none" id="canvas_background" height="43" width="45" y="-1" x="-1"/>
 </g>
 <g>
  <title>Layer 1</title>
  <ellipse stroke="null" ry="20.289678" rx="21.324865" id="svg_1" cy="20.5" cx="21.5" stroke-opacity="null" stroke-width="null" fill="#e27866"/>
  <path stroke="null" fill="#fff" d="m21.502908,9.669223c-6.777303,0 -12.271269,4.502475 -12.271269,10.054372a8.815073,8.889501 0 0 0 2.535765,6.108357a12.163657,12.266357 0 0 1 -2.22323,3.536174a1.150539,1.160253 0 0 0 0.839149,1.962617a11.631318,11.729524 0 0 0 6.667401,-2.243156a14.804744,14.929744 0 0 0 4.453329,0.692688c6.778448,0 12.271269,-4.502475 12.271269,-10.054372s-5.493966,-10.056681 -12.272414,-10.056681zm0,17.789393a12.456729,12.561904 0 0 1 -3.757282,-0.587631l-1.087574,-0.346344l-0.934169,0.66729a10.303333,10.390326 0 0 1 -2.755569,1.402694a12.020555,12.122047 0 0 0 0.953631,-1.942991l0.508298,-1.358824l-0.987975,-1.054041a6.592988,6.648654 0 0 1 -1.907261,-4.515174c0,-4.263497 4.472791,-7.735021 9.970191,-7.735021s9.970191,3.470369 9.970191,7.735021s-4.473936,7.735021 -9.972481,7.735021z" id="Path_82"/>
 </g>
</svg>