<svg width="47" height="48" xmlns="http://www.w3.org/2000/svg">

 <g>
  <title>background</title>
  <rect fill="none" id="canvas_background" height="50" width="49" y="-1" x="-1"/>
 </g>
 <g>
  <title>Layer 1</title>
  <ellipse stroke="null" ry="23.448258" rx="23.21837" id="svg_1" cy="24" cx="23.5" stroke-opacity="null" stroke-width="null" fill="#e27866"/>
  <path fill="#fff" d="m23.499498,18.75a5.2,5.2 0 0 0 -1.464,0.234a2.6,2.6 0 0 1 0.339,1.266a2.625,2.625 0 0 1 -2.625,2.625a2.6,2.6 0 0 1 -1.266,-0.339a5.236,5.236 0 1 0 5.016,-3.786zm13.337,4.566a15.035,15.035 0 0 0 -13.337,-8.316a15.037,15.037 0 0 0 -13.336,8.316a1.516,1.516 0 0 0 0,1.368a15.035,15.035 0 0 0 13.336,8.316a15.037,15.037 0 0 0 13.337,-8.316a1.516,1.516 0 0 0 0,-1.368zm-13.337,7.434a12.751,12.751 0 0 1 -11.152,-6.75a12.751,12.751 0 0 1 11.152,-6.75a12.751,12.751 0 0 1 11.153,6.75a12.75,12.75 0 0 1 -11.153,6.75z" id="Path_81"/>
 </g>
</svg>