<?xml version="1.0" encoding="iso-8859-1"?>
<!-- Generator: Adobe Illustrator 19.0.0, SVG Export Plug-In . SVG Version: 6.00 Build 0)  -->
<svg version="1.1" id="Capa_1" xmlns="http://www.w3.org/2000/svg" xmlns:xlink="http://www.w3.org/1999/xlink" x="0px" y="0px"
	 viewBox="0 0 512 512" style="enable-background:new 0 0 512 512;" xml:space="preserve">
<g>
	
		<linearGradient id="SVGID_1_" gradientUnits="userSpaceOnUse" x1="-42.9248" y1="603.7109" x2="16.9822" y2="603.7109" gradientTransform="matrix(8.5333 0 0 -8.5333 369.1334 5433.2671)">
		<stop  offset="0" style="stop-color:#00A2CC"/>
		<stop  offset="1" style="stop-color:#2B32B2"/>
	</linearGradient>
	<path style="fill:url(#SVGID_1_);" d="M460.8,247.467c-0.026-23.552-19.115-42.641-42.667-42.667h-93.867v-47.172
		c-0.051-49.331-40.03-89.31-89.361-89.361c-7.194,0.009-13.03,5.845-13.039,13.039v128.93L183.731,256H59.733
		c-4.71,0-8.533,3.823-8.533,8.533V486.4c0,4.71,3.823,8.533,8.533,8.533h358.4c23.561,0,42.667-19.106,42.667-42.667
		c0-13.431-6.323-26.078-17.067-34.133c18.85-14.14,22.673-40.883,8.533-59.733c-2.423-3.234-5.299-6.11-8.533-8.533
		c18.85-14.14,22.673-40.883,8.533-59.733c-2.423-3.234-5.299-6.11-8.533-8.533C454.477,273.545,460.8,260.898,460.8,247.467z
		 M179.2,477.867H128V366.933c0-4.71-3.823-8.533-8.533-8.533c-4.71,0-8.533,3.823-8.533,8.533v110.933H68.267v-204.8H179.2V477.867
		z M333.022,477.867H196.267V267.622l40.695-48.819l-0.094-0.077c1.306-1.493,2.039-3.405,2.065-5.393V85.444
		c38.281,2.185,68.224,33.843,68.267,72.183v55.706c0,4.71,3.823,8.533,8.533,8.533h17.289
		c-14.242,18.517-10.769,45.065,7.748,59.307c0.188,0.145,0.375,0.282,0.563,0.427c-18.85,14.14-22.673,40.883-8.533,59.733
		c2.423,3.234,5.299,6.11,8.533,8.533c-18.85,14.14-22.673,40.883-8.533,59.733c2.423,3.234,5.299,6.11,8.533,8.533
		c-18.756,13.918-22.682,40.405-8.772,59.162c0.145,0.188,0.282,0.384,0.427,0.572H333.022z M443.733,452.267
		c0,14.14-11.46,25.6-25.6,25.6l0,0h-51.2c-14.14,0-25.6-11.46-25.6-25.6s11.46-25.6,25.6-25.6h51.2
		C432.273,426.667,443.733,438.127,443.733,452.267z M443.733,384c0,14.14-11.46,25.6-25.6,25.6h-51.2
		c-14.14,0-25.6-11.46-25.6-25.6c0-14.14,11.46-25.6,25.6-25.6h51.2C432.273,358.4,443.733,369.86,443.733,384z M443.733,315.733
		c0,14.14-11.46,25.6-25.6,25.6h-51.2c-14.14,0-25.6-11.46-25.6-25.6c0-14.14,11.46-25.6,25.6-25.6h51.2
		C432.273,290.133,443.733,301.594,443.733,315.733z M418.133,273.067h-51.2c-14.14,0-25.6-11.46-25.6-25.6
		c0-14.14,11.46-25.6,25.6-25.6h51.2c14.14,0,25.6,11.46,25.6,25.6C443.733,261.606,432.273,273.067,418.133,273.067z"/>
	
		<linearGradient id="SVGID_2_" gradientUnits="userSpaceOnUse" x1="-42.9248" y1="620.7109" x2="16.9822" y2="620.7109" gradientTransform="matrix(8.5333 0 0 -8.5333 369.1334 5433.2671)">
		<stop  offset="0" style="stop-color:#00A2CC"/>
		<stop  offset="1" style="stop-color:#2B32B2"/>
	</linearGradient>
	<path style="fill:url(#SVGID_2_);" d="M503.467,128c-14.14,0-25.6-11.46-25.6-25.6c0-4.71-3.823-8.533-8.533-8.533
		c-4.71,0-8.533,3.823-8.533,8.533c0,14.14-11.46,25.6-25.6,25.6c-4.71,0-8.533,3.823-8.533,8.533s3.823,8.533,8.533,8.533
		c14.14,0,25.6,11.46,25.6,25.6c0,4.71,3.823,8.533,8.533,8.533c4.71,0,8.533-3.823,8.533-8.533c0-14.14,11.46-25.6,25.6-25.6
		c4.71,0,8.533-3.823,8.533-8.533S508.177,128,503.467,128z M469.333,145.331c-2.483-3.345-5.453-6.315-8.798-8.798
		c3.345-2.483,6.315-5.453,8.798-8.798c2.483,3.345,5.453,6.315,8.798,8.798C474.786,139.017,471.817,141.986,469.333,145.331z"/>
	
		<linearGradient id="SVGID_3_" gradientUnits="userSpaceOnUse" x1="-42.9248" y1="629.7109" x2="16.9822" y2="629.7109" gradientTransform="matrix(8.5333 0 0 -8.5333 369.1334 5433.2671)">
		<stop  offset="0" style="stop-color:#00A2CC"/>
		<stop  offset="1" style="stop-color:#2B32B2"/>
	</linearGradient>
	<path style="fill:url(#SVGID_3_);" d="M366.933,93.867c0,4.71,3.823,8.533,8.533,8.533c4.71,0,8.533-3.823,8.533-8.533
		c0-14.14,11.46-25.6,25.6-25.6c4.71,0,8.533-3.823,8.533-8.533S414.31,51.2,409.6,51.2c-14.14,0-25.6-11.46-25.6-25.6
		c0-4.71-3.823-8.533-8.533-8.533c-4.71,0-8.533,3.823-8.533,8.533c0,14.14-11.46,25.6-25.6,25.6c-4.71,0-8.533,3.823-8.533,8.533
		s3.823,8.533,8.533,8.533C355.473,68.267,366.933,79.727,366.933,93.867z M375.467,50.935c2.483,3.345,5.453,6.315,8.798,8.798
		c-3.345,2.483-6.315,5.453-8.798,8.798c-2.483-3.345-5.453-6.315-8.798-8.798C370.014,57.25,372.983,54.281,375.467,50.935z"/>
	
		<linearGradient id="SVGID_4_" gradientUnits="userSpaceOnUse" x1="-42.9248" y1="615.7109" x2="16.9822" y2="615.7109" gradientTransform="matrix(8.5333 0 0 -8.5333 369.1334 5433.2671)">
		<stop  offset="0" style="stop-color:#00A2CC"/>
		<stop  offset="1" style="stop-color:#2B32B2"/>
	</linearGradient>
	<path style="fill:url(#SVGID_4_);" d="M128,179.2c0-4.71-3.823-8.533-8.533-8.533H8.533C3.823,170.667,0,174.49,0,179.2
		s3.823,8.533,8.533,8.533h110.933C124.177,187.733,128,183.91,128,179.2z"/>
	
		<linearGradient id="SVGID_5_" gradientUnits="userSpaceOnUse" x1="-42.9248" y1="611.7109" x2="16.9822" y2="611.7109" gradientTransform="matrix(8.5333 0 0 -8.5333 369.1334 5433.2671)">
		<stop  offset="0" style="stop-color:#00A2CC"/>
		<stop  offset="1" style="stop-color:#2B32B2"/>
	</linearGradient>
	<path style="fill:url(#SVGID_5_);" d="M162.133,213.333c0-4.71-3.823-8.533-8.533-8.533h-128c-4.71,0-8.533,3.823-8.533,8.533
		s3.823,8.533,8.533,8.533h128C158.31,221.867,162.133,218.044,162.133,213.333z"/>
</g>
<g>
</g>
<g>
</g>
<g>
</g>
<g>
</g>
<g>
</g>
<g>
</g>
<g>
</g>
<g>
</g>
<g>
</g>
<g>
</g>
<g>
</g>
<g>
</g>
<g>
</g>
<g>
</g>
<g>
</g>
</svg>
